<svg width="375" height="812" viewBox="0 0 375 812" fill="none" xmlns="http://www.w3.org/2000/svg">
<rect width="375" height="812" fill="url(#paint0_linear_7_1287)"/>
<rect opacity="0.35" x="340.167" y="17.8333" width="21" height="10.3333" rx="2.16667" stroke="white"/>
<path opacity="0.4" d="M362.667 21V25C363.475 24.6612 364 23.8731 364 23C364 22.1269 363.475 21.3388 362.667 21Z" fill="white"/>
<rect x="341.667" y="19.3333" width="18" height="7.33333" rx="1.33333" fill="white"/>
<path fill-rule="evenodd" clip-rule="evenodd" d="M327 19.574C329.225 19.5741 331.365 20.4118 332.977 21.9139C333.099 22.0299 333.293 22.0284 333.412 21.9107L334.573 20.7628C334.633 20.7031 334.667 20.6222 334.667 20.538C334.666 20.4538 334.631 20.3732 334.57 20.3142C330.338 16.3399 323.662 16.3399 319.43 20.3142C319.369 20.3732 319.334 20.4537 319.333 20.5379C319.333 20.6221 319.366 20.703 319.427 20.7628L320.588 21.9107C320.707 22.0286 320.902 22.0301 321.023 21.9139C322.636 20.4117 324.775 19.574 327 19.574ZM326.999 23.2995C328.223 23.2995 329.403 23.7561 330.31 24.5806C330.432 24.6976 330.626 24.6951 330.745 24.5749L331.906 23.3977C331.967 23.336 332.001 23.2522 332 23.1652C331.999 23.0782 331.963 22.9951 331.901 22.9346C329.139 20.3552 324.861 20.3552 322.099 22.9346C322.036 22.9951 322.001 23.0782 322 23.1653C321.999 23.2523 322.033 23.3361 322.094 23.3977L323.255 24.5749C323.374 24.6951 323.568 24.6976 323.69 24.5806C324.597 23.7566 325.776 23.3 326.999 23.2995ZM329.333 26.0232C329.335 26.1086 329.301 26.191 329.238 26.2509L327.224 28.242C327.165 28.3005 327.084 28.3335 327 28.3335C326.916 28.3335 326.836 28.3005 326.776 28.242L324.761 26.2509C324.699 26.191 324.665 26.1085 324.667 26.0231C324.669 25.9376 324.706 25.8567 324.771 25.7994C326.058 24.7337 327.942 24.7337 329.229 25.7994C329.294 25.8568 329.331 25.9377 329.333 26.0232Z" fill="white"/>
<path fill-rule="evenodd" clip-rule="evenodd" d="M314.333 18.6667C314.333 18.1144 313.886 17.6667 313.333 17.6667H312.333C311.781 17.6667 311.333 18.1144 311.333 18.6667V27.3333C311.333 27.8856 311.781 28.3333 312.333 28.3333H313.333C313.886 28.3333 314.333 27.8856 314.333 27.3333V18.6667ZM307.667 20H308.667C309.219 20 309.667 20.4477 309.667 21V27.3333C309.667 27.8856 309.219 28.3333 308.667 28.3333H307.667C307.114 28.3333 306.667 27.8856 306.667 27.3333V21C306.667 20.4477 307.114 20 307.667 20ZM304 22.3333H303C302.448 22.3333 302 22.781 302 23.3333V27.3333C302 27.8856 302.448 28.3333 303 28.3333H304C304.552 28.3333 305 27.8856 305 27.3333V23.3333C305 22.781 304.552 22.3333 304 22.3333ZM300.333 25.3333C300.333 24.781 299.886 24.3333 299.333 24.3333H298.333C297.781 24.3333 297.333 24.781 297.333 25.3333V27.3333C297.333 27.8856 297.781 28.3333 298.333 28.3333H299.333C299.886 28.3333 300.333 27.8856 300.333 27.3333V25.3333Z" fill="white"/>
<path d="M26.6641 28.2563C29.3521 28.2563 30.9487 26.1543 30.9487 22.5947C30.9487 21.2544 30.6924 20.1265 30.2017 19.2549C29.4912 17.8999 28.2681 17.1675 26.7227 17.1675C24.4229 17.1675 22.7969 18.7129 22.7969 20.8809C22.7969 22.917 24.2617 24.3965 26.2759 24.3965C27.5137 24.3965 28.5171 23.8179 29.0151 22.8145H29.0371C29.0371 22.8145 29.0664 22.8145 29.0737 22.8145C29.0884 22.8145 29.1396 22.8145 29.1396 22.8145C29.1396 25.2314 28.2241 26.6743 26.6787 26.6743C25.7705 26.6743 25.0674 26.1763 24.8257 25.3779H22.9434C23.2583 27.1138 24.7305 28.2563 26.6641 28.2563ZM26.73 22.895C25.5142 22.895 24.6499 22.0308 24.6499 20.8223C24.6499 19.6431 25.5581 18.7422 26.7373 18.7422C27.9165 18.7422 28.8247 19.6577 28.8247 20.8516C28.8247 22.0308 27.9385 22.895 26.73 22.895ZM33.9333 26.8794C34.6291 26.8794 35.1052 26.3813 35.1052 25.7222C35.1052 25.0557 34.6291 24.5649 33.9333 24.5649C33.2448 24.5649 32.7614 25.0557 32.7614 25.7222C32.7614 26.3813 33.2448 26.8794 33.9333 26.8794ZM33.9333 21.3862C34.6291 21.3862 35.1052 20.8955 35.1052 20.2363C35.1052 19.5698 34.6291 19.0791 33.9333 19.0791C33.2448 19.0791 32.7614 19.5698 32.7614 20.2363C32.7614 20.8955 33.2448 21.3862 33.9333 21.3862ZM37.1302 20.522V20.5513H38.9026V20.522C38.9026 19.4453 39.6497 18.7202 40.7557 18.7202C41.7957 18.7202 42.5574 19.394 42.5574 20.3242C42.5574 21.0713 42.1985 21.6206 40.7557 23.0854L37.2327 26.689V28H44.5716V26.396H39.8255V26.2715L42.0374 24.0522C43.8318 22.2798 44.4105 21.3423 44.4105 20.207C44.4105 18.4419 42.9017 17.1675 40.8143 17.1675C38.6463 17.1675 37.1302 18.5444 37.1302 20.522ZM46.8091 28H48.7866L53.3057 19.0425V17.4312H45.9521V19.0205H51.4014V19.1377L46.8091 28Z" fill="white"/>
<path fill-rule="evenodd" clip-rule="evenodd" d="M138.094 456.65C117.552 456.65 100.888 439.987 100.888 419.444C100.888 398.902 117.552 382.238 138.094 382.238C140.802 382.238 143.446 382.527 145.989 383.077C148.925 383.711 151.837 382.116 152.88 379.296C158.131 365.115 171.779 355 187.785 355C203.79 355 217.438 365.115 222.689 379.296C223.732 382.116 226.642 383.711 229.58 383.077C232.124 382.527 234.768 382.238 237.475 382.238C258.018 382.238 274.681 398.902 274.681 419.444C274.681 439.987 258.018 456.65 237.475 456.65C198.271 456.65 177.301 456.65 138.096 456.65H138.094Z" fill="white"/>
<path fill-rule="evenodd" clip-rule="evenodd" d="M228.492 435.442C216.596 443.159 202.67 447.598 187.785 447.598C172.897 447.598 158.97 443.159 147.077 435.442C146.071 434.789 145.694 433.427 146.204 432.285C146.714 431.141 147.937 430.61 149.039 431.056C161.094 435.938 174.153 438.609 187.787 438.609C201.422 438.609 214.48 435.938 226.535 431.056C227.637 430.61 228.861 431.141 229.371 432.285C229.88 433.427 229.503 434.791 228.497 435.444L228.492 435.442Z" fill="#FEB100"/>
<path fill-rule="evenodd" clip-rule="evenodd" d="M167.219 384.178C171.917 384.178 175.724 387.988 175.724 392.684C175.724 397.383 171.915 401.19 167.219 401.19C162.52 401.19 158.713 397.38 158.713 392.684C158.713 387.985 162.522 384.178 167.219 384.178Z" fill="#FEB100"/>
<path fill-rule="evenodd" clip-rule="evenodd" d="M207.737 384.178C212.436 384.178 216.243 387.988 216.243 392.684C216.243 397.383 212.434 401.19 207.737 401.19C203.039 401.19 199.232 397.38 199.232 392.684C199.232 387.985 203.041 384.178 207.737 384.178Z" fill="#FEB100"/>
<defs>
<linearGradient id="paint0_linear_7_1287" x1="188" y1="2.01047e-06" x2="188" y2="812" gradientUnits="userSpaceOnUse">
<stop stop-color="#001DB6"/>
<stop offset="1" stop-color="#0043FC"/>
</linearGradient>
</defs>
</svg>
